<svg id="Capa_1" enable-background="new 0 0 512 512" height="512" viewBox="0 0 512 512" width="512" xmlns="http://www.w3.org/2000/svg"><g><g><g><path d="m244.15 7.5h132.448c10.402 0 18.836 8.434 18.836 18.836v242.536c0 10.402-8.434 18.836-18.836 18.836h-132.448c-10.402 0-18.836-8.434-18.836-18.836v-242.536c0-10.402 8.434-18.836 18.836-18.836z" fill="#b3e59f"/><g fill="#95d6a4"><circle cx="310.374" cy="147.604" r="59.542"/><path d="m341.563 7.5h35.036c10.402 0 18.836 8.434 18.836 18.836v35.036c-29.757 0-53.872-24.123-53.872-53.872z"/><path d="m244.15 7.5h35.036c0 29.749-24.122 53.872-53.872 53.872v-35.036c0-10.402 8.434-18.836 18.836-18.836z"/></g></g><g><path d="m131.362 79.497h132.448c10.402 0 18.836 8.434 18.836 18.836v242.536c0 10.402-8.434 18.836-18.836 18.836h-132.448c-10.402 0-18.836-8.434-18.836-18.836v-242.536c0-10.402 8.434-18.836 18.836-18.836z" fill="#b3e59f"/><g fill="#95d6a4"><circle cx="197.586" cy="219.601" r="59.542"/><path d="m228.774 79.497h35.036c10.402 0 18.836 8.434 18.836 18.836v35.036c-29.757 0-53.872-24.122-53.872-53.872z"/><path d="m131.362 79.497h35.036c0 29.749-24.122 53.872-53.872 53.872v-35.036c0-10.402 8.434-18.836 18.836-18.836z"/></g></g><path d="m454.75 241.663v157.054c0 17.247-10.457 32.772-26.44 39.254l-156.391 63.422c-10.209 4.14-21.629 4.14-31.838 0l-156.391-63.422c-15.983-6.482-26.44-22.007-26.44-39.254v-157.054c0-23.394 18.965-42.359 42.359-42.359h312.782c23.394 0 42.359 18.965 42.359 42.359z" fill="#9dc6fb"/><path d="m284.707 496.211-12.782 5.181c-10.212 4.143-21.633 4.143-31.844 0l-156.388-63.426c-15.987-6.481-26.441-22.005-26.441-39.253v-157.054c0-23.387 18.961-42.358 42.358-42.358h8.417c-10.625 7.691-17.53 20.201-17.53 34.314v157.053c0 17.248 10.454 32.772 26.441 39.253l156.388 63.426c3.67 1.494 7.51 2.441 11.381 2.864z" fill="#80b4fb"/></g><g><path d="m412.386 191.794h-9.456v-165.454c0-14.524-11.816-26.34-26.34-26.34h-132.443c-14.518 0-26.33 11.816-26.33 26.34v45.653h-86.452c-14.521 0-26.335 11.814-26.335 26.335v93.466h-5.415c-27.492 0-49.858 22.367-49.858 49.859v157.055c0 20.399 12.215 38.533 31.121 46.199l156.386 63.418c6.04 2.45 12.388 3.675 18.736 3.675s12.696-1.225 18.738-3.675l64.478-26.149c3.838-1.557 5.688-5.93 4.131-9.769-1.557-3.838-5.93-5.687-9.769-4.131l-64.477 26.149c-8.449 3.426-17.755 3.425-26.203 0l-156.385-63.418c-13.217-5.36-21.758-18.038-21.758-32.299v-157.055c0-19.222 15.638-34.859 34.859-34.859h312.771c19.221 0 34.859 15.638 34.859 34.859v157.055c0 14.261-8.54 26.939-21.758 32.299l-64.138 26.009c-3.839 1.557-5.688 5.93-4.132 9.768 1.557 3.839 5.932 5.689 9.768 4.132l64.138-26.009c18.905-7.666 31.121-25.8 31.121-46.199v-157.055c.001-27.492-22.366-49.859-49.857-49.859zm-24.456-165.454v26.915c-19.571-3.198-35.058-18.685-38.255-38.255h26.915c6.253 0 11.34 5.087 11.34 11.34zm-143.783-11.34h26.923c-3.197 19.57-18.683 35.057-38.254 38.255v-26.915c.001-6.253 5.083-11.34 11.331-11.34zm-11.33 53.394c27.851-3.411 49.982-25.543 53.393-53.394h48.324c3.411 27.852 25.543 49.984 53.395 53.395v123.399h-27.17c10.56-12.062 16.657-27.73 16.657-44.19 0-36.968-30.076-67.043-67.043-67.043-8.171 0-16.294 1.507-23.887 4.395-4.589-7.751-13.032-12.963-22.674-12.963h-30.995zm42.33 56.856c-19.573-3.196-35.061-18.685-38.257-38.258h26.922c6.25 0 11.336 5.085 11.336 11.336v26.922zm15 41.549c.686.208 1.384.39 2.102.525 6.582 1.241 12.995-.953 16.737-5.723 3.501-4.464 5.99-10.756 8.158-16.89 1.015-2.871 2.945-4.086 5.749-3.617 2.158.363 5.819 2.222 5.85 6.887.033 4.886-.147 6.041-2.481 9.609-2.268 3.466-1.296 8.115 2.17 10.382 1.267.829 2.691 1.225 4.099 1.225 2.446 0 4.844-1.195 6.283-3.395 2.552-3.901 3.825-6.998 4.431-10.371h.607c4.142 0 7.5-3.358 7.5-7.5s-3.358-7.5-7.5-7.5h-1.458c-2.656-7.256-9.016-12.783-17.014-14.128-9.958-1.673-18.952 3.715-22.378 13.41-1.659 4.693-3.647 9.863-5.819 12.632-.126.161-.951.467-2.157.24-.593-.112-2.573-.624-3.144-2.521-1.392-4.619.89-7.555 1.154-7.875 2.64-3.187 2.204-7.917-.982-10.561-.59-.49-1.234-.874-1.907-1.154v-30.807c6.368-2.682 13.268-4.107 20.226-4.107 28.697 0 52.044 23.347 52.044 52.044 0 17.973-9.367 34.728-24.568 44.19h-47.702zm-158.782-79.806h26.92c-3.197 19.573-18.684 35.06-38.256 38.258v-26.923c0-6.25 5.086-11.335 11.336-11.335zm-11.336 53.397c27.853-3.411 49.986-25.544 53.396-53.398h48.324c3.41 27.854 25.544 49.987 53.397 53.398v51.404h-16.549c-10.786-23.674-34.667-39.239-61.016-39.239-3.234 0-6.446.228-9.547.678-4.099.595-6.94 4.4-6.346 8.499s4.398 6.939 8.499 6.346c2.39-.347 4.877-.522 7.393-.522 18.047 0 34.596 9.408 43.993 24.239h-87.993c3.291-5.202 7.498-9.8 12.465-13.582 3.296-2.508 3.934-7.214 1.425-10.51-2.509-3.297-7.215-3.934-10.51-1.425-8.846 6.732-15.815 15.483-20.387 25.517h-16.544z"/><path d="m93.566 413.618 28.853 11.701c.923.375 1.877.552 2.816.552 2.963 0 5.77-1.768 6.952-4.683 1.557-3.838-.293-8.212-4.132-9.768l-28.853-11.701c-.305-.124-.467-.328-.549-.477-1.996-3.629-6.556-4.952-10.186-2.958-3.629 1.996-4.954 6.556-2.958 10.186 1.773 3.221 4.634 5.76 8.057 7.148z"/><path d="m139.731 240.564h36.999c4.142 0 7.5-3.358 7.5-7.5s-3.358-7.5-7.5-7.5h-36.999c-4.142 0-7.5 3.358-7.5 7.5s3.358 7.5 7.5 7.5z"/><path d="m146.513 435.089 34.287 13.904c.923.375 1.877.552 2.816.552 2.963 0 5.77-1.768 6.952-4.683 1.557-3.838-.293-8.212-4.132-9.768l-34.287-13.904c-3.837-1.556-8.211.293-9.768 4.132-1.557 3.837.293 8.211 4.132 9.767z"/><path d="m204.893 458.764 34.287 13.904c.923.375 1.877.552 2.816.552 2.963 0 5.77-1.768 6.952-4.683 1.557-3.838-.293-8.212-4.132-9.768l-34.287-13.904c-3.838-1.557-8.212.293-9.768 4.132-1.556 3.837.293 8.211 4.132 9.767z"/><path d="m83.522 377.035c0 4.142 3.358 7.5 7.5 7.5s7.5-3.358 7.5-7.5v-36.999c0-4.142-3.358-7.5-7.5-7.5s-7.5 3.358-7.5 7.5z"/><path d="m239.728 240.564c4.142 0 7.5-3.358 7.5-7.5s-3.358-7.5-7.5-7.5h-36.999c-4.142 0-7.5 3.358-7.5 7.5s3.358 7.5 7.5 7.5z"/><path d="m83.522 314.037c0 4.142 3.358 7.5 7.5 7.5s7.5-3.358 7.5-7.5v-36.999c0-4.142-3.358-7.5-7.5-7.5s-7.5 3.358-7.5 7.5z"/><path d="m91.022 258.538c4.142 0 7.5-3.358 7.5-7.5v-9.383c0-.592.5-1.092 1.092-1.092h14.118c4.142 0 7.5-3.358 7.5-7.5s-3.358-7.5-7.5-7.5h-14.118c-8.873 0-16.091 7.219-16.091 16.091v9.383c-.001 4.143 3.357 7.501 7.499 7.501z"/><path d="m428.478 277.038c0-4.142-3.358-7.5-7.5-7.5s-7.5 3.358-7.5 7.5v36.999c0 4.142 3.358 7.5 7.5 7.5s7.5-3.358 7.5-7.5z"/><path d="m420.978 332.536c-4.142 0-7.5 3.358-7.5 7.5v36.999c0 4.142 3.358 7.5 7.5 7.5s7.5-3.358 7.5-7.5v-36.999c0-4.142-3.358-7.5-7.5-7.5z"/><path d="m321.432 444.862c1.182 2.915 3.989 4.683 6.952 4.683.938 0 1.893-.177 2.816-.552l34.287-13.904c3.839-1.557 5.688-5.93 4.132-9.768-1.556-3.839-5.93-5.688-9.768-4.132l-34.287 13.904c-3.839 1.557-5.688 5.931-4.132 9.769z"/><path d="m301.47 444.864-34.287 13.904c-3.839 1.557-5.688 5.93-4.132 9.768 1.182 2.915 3.989 4.683 6.952 4.683.938 0 1.893-.177 2.816-.552l34.287-13.904c3.839-1.557 5.688-5.93 4.132-9.768s-5.931-5.687-9.768-4.131z"/><path d="m316.771 233.064c0-4.142-3.358-7.5-7.5-7.5h-36.999c-4.142 0-7.5 3.358-7.5 7.5s3.358 7.5 7.5 7.5h36.999c4.142 0 7.5-3.358 7.5-7.5z"/><path d="m428.478 241.655c0-8.873-7.219-16.091-16.091-16.091h-14.118c-4.142 0-7.5 3.358-7.5 7.5s3.358 7.5 7.5 7.5h14.118c.592 0 1.092.5 1.092 1.092v9.383c0 4.142 3.358 7.5 7.5 7.5s7.5-3.358 7.5-7.5v-9.384z"/><path d="m379.813 421.187c1.182 2.915 3.989 4.683 6.952 4.683.938 0 1.893-.177 2.816-.552l28.853-11.701c3.423-1.388 6.284-3.927 8.056-7.149 1.996-3.63.671-8.19-2.958-10.186-3.632-1.995-8.19-.671-10.186 2.958-.082.149-.244.353-.549.477l-28.853 11.701c-3.838 1.557-5.688 5.931-4.131 9.769z"/><path d="m372.269 225.564h-36.999c-4.142 0-7.5 3.358-7.5 7.5s3.358 7.5 7.5 7.5h36.999c4.142 0 7.5-3.358 7.5-7.5s-3.358-7.5-7.5-7.5z"/></g></g></svg>